<mxfile host="Electron" agent="Mozilla/5.0 (X11; Linux x86_64) AppleWebKit/537.36 (KHTML, like Gecko) draw.io/28.0.6 Chrome/138.0.7204.185 Electron/37.2.6 Safari/537.36" version="28.0.6">
  <diagram name="Page-1" id="68h4ZSS9jFq-mOfBSY2c">
    <mxGraphModel dx="2276" dy="840" grid="1" gridSize="10" guides="1" tooltips="1" connect="1" arrows="1" fold="1" page="1" pageScale="1" pageWidth="850" pageHeight="1100" math="0" shadow="0">
      <root>
        <mxCell id="0" />
        <mxCell id="1" parent="0" />
        <mxCell id="il97530B5hTjiGjfRUbK-1" value="" style="rounded=0;whiteSpace=wrap;html=1;fillColor=#FFFFFF;strokeColor=none;strokeWidth=2;" vertex="1" parent="1">
          <mxGeometry x="-240" y="120" width="1230" height="640" as="geometry" />
        </mxCell>
        <mxCell id="il97530B5hTjiGjfRUbK-2" value="" style="shape=mxgraph.cisco.computers_and_peripherals.pc;html=1;pointerEvents=1;dashed=0;fillColor=#036897;strokeColor=#000000;strokeWidth=2;verticalLabelPosition=bottom;verticalAlign=top;align=center;outlineConnect=0;perimeterSpacing=2;" vertex="1" parent="1">
          <mxGeometry x="-220" y="530" width="100" height="100" as="geometry" />
        </mxCell>
        <mxCell id="il97530B5hTjiGjfRUbK-4" value="" style="shape=mxgraph.cisco.computers_and_peripherals.pc;html=1;pointerEvents=1;dashed=0;fillColor=#036897;strokeColor=#000000;strokeWidth=2;verticalLabelPosition=bottom;verticalAlign=top;align=center;outlineConnect=0;perimeterSpacing=2;" vertex="1" parent="1">
          <mxGeometry x="40" y="530" width="100" height="100" as="geometry" />
        </mxCell>
        <mxCell id="il97530B5hTjiGjfRUbK-5" value="" style="shape=mxgraph.cisco.computers_and_peripherals.pc;html=1;pointerEvents=1;dashed=0;fillColor=#036897;strokeColor=#000000;strokeWidth=2;verticalLabelPosition=bottom;verticalAlign=top;align=center;outlineConnect=0;perimeterSpacing=2;" vertex="1" parent="1">
          <mxGeometry x="300" y="530" width="100" height="100" as="geometry" />
        </mxCell>
        <mxCell id="il97530B5hTjiGjfRUbK-6" value="" style="shape=mxgraph.cisco.computers_and_peripherals.pc;html=1;pointerEvents=1;dashed=0;fillColor=#036897;strokeColor=#000000;strokeWidth=2;verticalLabelPosition=bottom;verticalAlign=top;align=center;outlineConnect=0;perimeterSpacing=2;" vertex="1" parent="1">
          <mxGeometry x="560" y="530" width="100" height="100" as="geometry" />
        </mxCell>
        <mxCell id="il97530B5hTjiGjfRUbK-7" value="" style="fontColor=#0066CC;verticalAlign=top;verticalLabelPosition=bottom;labelPosition=center;align=center;html=1;outlineConnect=0;fillColor=#0000CC;strokeColor=#000000;gradientColor=none;gradientDirection=north;strokeWidth=2;shape=mxgraph.networks.desktop_pc;perimeterSpacing=2;" vertex="1" parent="1">
          <mxGeometry x="-90" y="230" width="90" height="120" as="geometry" />
        </mxCell>
        <mxCell id="il97530B5hTjiGjfRUbK-8" value="" style="fontColor=#0066CC;verticalAlign=top;verticalLabelPosition=bottom;labelPosition=center;align=center;html=1;outlineConnect=0;fillColor=#0000CC;strokeColor=#000000;gradientColor=none;gradientDirection=north;strokeWidth=2;shape=mxgraph.networks.desktop_pc;perimeterSpacing=2;" vertex="1" parent="1">
          <mxGeometry x="440" y="230" width="90" height="120" as="geometry" />
        </mxCell>
        <mxCell id="il97530B5hTjiGjfRUbK-11" value="" style="endArrow=none;html=1;rounded=0;strokeColor=#000000;entryX=0.02;entryY=0.98;entryDx=0;entryDy=0;entryPerimeter=0;strokeWidth=3;" edge="1" parent="1" source="il97530B5hTjiGjfRUbK-2" target="il97530B5hTjiGjfRUbK-7">
          <mxGeometry width="50" height="50" relative="1" as="geometry">
            <mxPoint x="-50" y="470" as="sourcePoint" />
            <mxPoint y="420" as="targetPoint" />
          </mxGeometry>
        </mxCell>
        <mxCell id="il97530B5hTjiGjfRUbK-12" value="" style="endArrow=none;html=1;rounded=0;strokeColor=#000000;entryX=0.98;entryY=0.98;entryDx=0;entryDy=0;entryPerimeter=0;strokeWidth=3;" edge="1" parent="1" source="il97530B5hTjiGjfRUbK-4" target="il97530B5hTjiGjfRUbK-7">
          <mxGeometry width="50" height="50" relative="1" as="geometry">
            <mxPoint x="30" y="628" as="sourcePoint" />
            <mxPoint x="92" y="450" as="targetPoint" />
          </mxGeometry>
        </mxCell>
        <mxCell id="il97530B5hTjiGjfRUbK-13" value="" style="endArrow=none;html=1;rounded=0;strokeColor=#000000;entryX=0.98;entryY=0.98;entryDx=0;entryDy=0;entryPerimeter=0;strokeWidth=3;" edge="1" parent="1">
          <mxGeometry width="50" height="50" relative="1" as="geometry">
            <mxPoint x="590" y="529" as="sourcePoint" />
            <mxPoint x="520" y="351" as="targetPoint" />
          </mxGeometry>
        </mxCell>
        <mxCell id="il97530B5hTjiGjfRUbK-14" value="" style="endArrow=none;html=1;rounded=0;strokeColor=#000000;entryX=0.02;entryY=0.98;entryDx=0;entryDy=0;entryPerimeter=0;strokeWidth=3;" edge="1" parent="1">
          <mxGeometry width="50" height="50" relative="1" as="geometry">
            <mxPoint x="380" y="528" as="sourcePoint" />
            <mxPoint x="442" y="350" as="targetPoint" />
          </mxGeometry>
        </mxCell>
        <mxCell id="il97530B5hTjiGjfRUbK-15" value="" style="endArrow=none;html=1;rounded=0;strokeColor=#000000;entryX=0;entryY=0.5;entryDx=0;entryDy=0;entryPerimeter=0;strokeWidth=3;exitX=1;exitY=0.5;exitDx=0;exitDy=0;exitPerimeter=0;" edge="1" parent="1" source="il97530B5hTjiGjfRUbK-7" target="il97530B5hTjiGjfRUbK-8">
          <mxGeometry width="50" height="50" relative="1" as="geometry">
            <mxPoint x="190" y="478" as="sourcePoint" />
            <mxPoint x="252" y="300" as="targetPoint" />
          </mxGeometry>
        </mxCell>
        <mxCell id="il97530B5hTjiGjfRUbK-16" value="" style="endArrow=none;html=1;rounded=0;strokeColor=#000000;entryX=0;entryY=0.5;entryDx=0;entryDy=0;strokeWidth=3;" edge="1" parent="1" source="il97530B5hTjiGjfRUbK-8">
          <mxGeometry width="50" height="50" relative="1" as="geometry">
            <mxPoint x="610" y="280" as="sourcePoint" />
            <mxPoint x="878.0000000000073" y="290" as="targetPoint" />
          </mxGeometry>
        </mxCell>
        <mxCell id="il97530B5hTjiGjfRUbK-17" value="&lt;font style=&quot;font-size: 16px;&quot;&gt;PC1&lt;/font&gt;" style="text;html=1;align=center;verticalAlign=middle;whiteSpace=wrap;rounded=0;" vertex="1" parent="1">
          <mxGeometry x="-214" y="544" width="80" height="40" as="geometry" />
        </mxCell>
        <mxCell id="il97530B5hTjiGjfRUbK-18" value="&lt;font style=&quot;font-size: 16px;&quot;&gt;PC2&lt;/font&gt;" style="text;html=1;align=center;verticalAlign=middle;whiteSpace=wrap;rounded=0;" vertex="1" parent="1">
          <mxGeometry x="46" y="544" width="80" height="40" as="geometry" />
        </mxCell>
        <mxCell id="il97530B5hTjiGjfRUbK-19" value="&lt;font style=&quot;font-size: 16px;&quot;&gt;PC3&lt;/font&gt;" style="text;html=1;align=center;verticalAlign=middle;whiteSpace=wrap;rounded=0;" vertex="1" parent="1">
          <mxGeometry x="306" y="544" width="80" height="40" as="geometry" />
        </mxCell>
        <mxCell id="il97530B5hTjiGjfRUbK-20" value="&lt;font style=&quot;font-size: 16px;&quot;&gt;PC4&lt;/font&gt;" style="text;html=1;align=center;verticalAlign=middle;whiteSpace=wrap;rounded=0;" vertex="1" parent="1">
          <mxGeometry x="567" y="544" width="80" height="40" as="geometry" />
        </mxCell>
        <mxCell id="il97530B5hTjiGjfRUbK-21" value="&lt;font style=&quot;font-size: 16px;&quot;&gt;S1&lt;/font&gt;" style="text;html=1;align=center;verticalAlign=middle;whiteSpace=wrap;rounded=0;" vertex="1" parent="1">
          <mxGeometry x="-85" y="250" width="80" height="40" as="geometry" />
        </mxCell>
        <mxCell id="il97530B5hTjiGjfRUbK-22" value="&lt;span style=&quot;font-size: 16px;&quot;&gt;S2&lt;/span&gt;" style="text;html=1;align=center;verticalAlign=middle;whiteSpace=wrap;rounded=0;" vertex="1" parent="1">
          <mxGeometry x="445" y="250" width="80" height="40" as="geometry" />
        </mxCell>
        <mxCell id="il97530B5hTjiGjfRUbK-24" value="" style="shape=mxgraph.networks2.icon;aspect=fixed;fillColor=#B266FF;strokeColor=#000000;gradientColor=none;network2IconShadow=1;network2bgFillColor=none;network2Icon=mxgraph.networks2.desktop_pc;network2IconXOffset=-0.0034;network2IconYOffset=0.00035;network2IconW=0.453;network2IconH=0.9995;" vertex="1" parent="1">
          <mxGeometry x="880" y="220.89" width="62.65" height="138.23" as="geometry" />
        </mxCell>
        <mxCell id="il97530B5hTjiGjfRUbK-23" value="&lt;font style=&quot;font-size: 16px; color: rgb(255, 255, 255);&quot;&gt;R1&lt;/font&gt;" style="text;html=1;align=center;verticalAlign=middle;whiteSpace=wrap;rounded=0;" vertex="1" parent="1">
          <mxGeometry x="871.3199999999999" y="250" width="80" height="40" as="geometry" />
        </mxCell>
      </root>
    </mxGraphModel>
  </diagram>
</mxfile>
